<?xml version="1.0" encoding="utf-8"?>
<!-- Generator: Adobe Illustrator 15.1.0, SVG Export Plug-In . SVG Version: 6.00 Build 0)  -->
<!DOCTYPE svg PUBLIC "-//W3C//DTD SVG 1.1//EN" "http://www.w3.org/Graphics/SVG/1.1/DTD/svg11.dtd">
<svg version="1.1" id="Layer_1" xmlns="http://www.w3.org/2000/svg" xmlns:xlink="http://www.w3.org/1999/xlink" x="0px" y="0px"
	 width="70px" height="50px" viewBox="0 0 499.999 334.004" enable-background="new 0 0 499.999 334.004"
	 xml:space="preserve">
<g id="change1">
	<g>
		<path fill="#5D4680" d="M497.916,0.863c-1.859,1.998-2.963,6.298-4.088,8.762c-2.468,5.412-4.577,11.062-7.372,16.324
			c-4.704,8.855-9.165,17.36-14.617,25.709c-2.855,4.379-6.299,8.39-9.739,12.254c-6.884,7.734-15.766,14.297-24.699,19.47
			c-3.425,1.983-6.966,3.478-10.626,4.868c-5.769,2.195-11.363,4.379-17.424,5.557c-12.307,2.396-25.202,3.902-37.751,3.731
			c-5.411-0.075-11.17-0.969-16.566-1.733c-10.406-1.465-19.705-5.535-29.861-7.767c-12.615-2.773-24.435-8.595-37.062-11.509
			c-4.562-1.826-9.127-1.826-13.693-2.739c-5.479-1.826-10.044-1.826-14.609-1.826c-6.392,0-12.78,0-18.259,0
			c-4.565,0-9.131,1.826-13.697,2.739c-11.871,2.739-23.738,7.305-32.869,15.523c-10.044,9.131-22.825,16.433-34.695,24.651
			c-5.479,4.565-10.957,9.131-17.349,11.871c-5.479,2.739-10.954,4.565-16.433,5.479c-11.871,2.739-21.915-0.913-32.869-4.565
			c-6.392-0.913-11.871-3.653-17.349-7.305c-1.826-0.913-4.566-2.739-6.392-4.565s-4.565-2.74-6.392-3.653
			c6.392-5.479,9.131-14.606,11.871-21.911c1.826-6.392,1.826-14.61,0-20.088c-5.479,0-10.044,2.739-13.697,6.392
			c-1.827,1.826-4.562,3.652-6.388,5.479c-1.827,1.827-2.74,3.653-4.566,5.479c0-1.826-2.739-16.436-5.479-14.61v0.913
			c-3.652,0.913-4.566,4.565-7.305,8.218c-1.826,2.74-2.739,6.392-3.652,10.044c0,3.653,0,7.305,0,11.867
			c0,1.826,0,2.739,0.913,4.565c0,0.913,0.913,2.739,0.913,4.565c0,0.914-1.826,1.827-3.652,2.74s-2.74,1.826-4.566,3.652
			c-3.652,3.652-7.305,6.392-10.041,10.044c-2.739,3.652-5.479,6.392-7.305,10.041c-1.826,3.652-3.652,6.392-4.565,10.044
			c-1.826,3.652-3.652,7.305-5.479,10.958c-0.913,3.652-0.913,5.479,2.739,7.305c5.479,3.653,15.523,2.74,20.998-0.913
			c1.826-0.913,3.652-1.826,5.479-3.652c0.914,0,2.74-0.913,3.653-1.826c0.913,0,0.913-0.913,1.826-1.826
			c1.826,0,2.739,0.913,4.565,0.913c1.827,0,3.653,0,5.479,0c7.305-0.913,13.697-5.479,17.346-11.871
			c2.739,1.826,4.565,4.565,6.392,7.305c3.652,4.566,9.131,9.131,14.61,13.697c6.392,6.392,14.606,11.867,22.825,15.52
			c10.044,5.479,19.175,9.131,30.129,10.958c7.305,1.826,15.523,5.479,23.741,5.479c-1.826,1.826-1.826,4.565-2.739,7.305
			s-1.826,4.565-2.739,7.301c-0.913,5.479,0,11.871,0,17.349c0,2.74,0.913,5.479,2.739,8.218c1.826,2.74,3.652,5.479,6.392,7.305
			c2.739,1.826,5.479,5.475,9.131,6.388c1.822,0,6.388,0,8.214-0.913c4.566-1.823,0-5.475-1.826-7.301
			c-1.826-2.739-3.652-5.479-5.479-7.305c-1.823-2.739-5.475-5.479-6.388-9.131c0-3.652,1.826-3.652,4.565-5.479
			c4.562-3.652,9.127-7.305,13.693-10.958c2.739-1.823,4.565-2.736,7.305-3.649c0.913-0.913,2.739-2.739,4.565-2.739
			c3.652,3.652,6.392,9.127,9.131,13.693c4.562,5.479,8.214,10.957,11.867,17.349c1.826,3.652,3.652,5.479,5.479,9.131
			c0.914,2.739,2.74,5.475,4.566,8.214c2.739,3.652,4.565,7.305,7.305,10.958c0.913,1.826,1.826,4.565,3.652,5.479
			c-1.826,1.826-6.392,3.652-8.218,5.479c-4.565,2.739-9.131,5.479-13.697,7.305c-7.301,4.566-15.52,9.127-21.911,14.606
			c-6.392,6.393-12.784,12.784-18.263,20.089c-1.826,2.739-5.475,6.393-4.562,10.041c0.909,3.652,2.735,3.652,6.388,3.652
			c6.392,0,10.958-4.565,16.437-7.301c5.479-1.827,10.958-4.566,15.519-8.219c2.74-1.826,5.479-2.739,8.218-4.565
			c2.739-0.913,4.565-2.739,7.305-4.565c2.739-0.913,5.479-1.826,7.305-3.652c2.74-1.826,4.566-3.652,7.305-4.566
			c6.392-2.739,12.78-7.305,19.172-10.953c4.565-1.826,8.218-4.566,7.305-10.044c-1.826-5.479-2.739-11.871-2.739-17.35
			c-0.913-6.392-0.913-12.78-0.913-18.258c0-10.958,0-22.828,1.826-32.869c0.913-3.652,1.826-7.305,1.826-10.957
			c0.913-1.827,0-7.305,1.826-9.131c0.913-0.913,3.653-1.827,4.565-2.74c2.74-0.913,4.566-2.739,6.389-4.565
			c3.652-5.479,9.131-9.127,12.783-15.52c3.653-4.565,6.393-10.957,9.132-16.436c1.834-3.664,2.772-8.181,3.861-12.113
			c1.103-3.973,2.124-7.7,2.318-11.822c2.132-0.276,5.173,1.417,7.558,1.614c3.97,0.335,7.809,1.323,11.83,1.323
			c11.867,0.913,23.737,0.913,35.608,0c7.305-0.913,14.605-0.913,20.998-2.739c6.392-1.826,12.783-2.74,17.346-4.566
			c4.569-1.826,8.222-3.652,12.783-5.479c6.902-2.762,12.94-5.948,19.001-10.193c2.377-1.666,4.632-3.697,6.954-5.475
			c3.652-2.799,7.052-5.509,10.406-8.695c4.319-4.1,9.522-7.461,12.94-12.24c1.767-2.467,3.958-4.409,5.362-7.074
			c1.584-3.008,3.634-5.803,5.706-8.512c6.184-8.069,9.959-18.345,13.947-27.614c1.833-4.264,4.188-8.65,5.15-13.22
			c0.771-3.656,1.543-7.07,2.825-10.637c0.864-2.393,1.334-5.076,1.99-7.644C499.769,5.436,501.155-2.618,497.916,0.863z
			 M39.182,135.64c-0.037-0.004-0.077-0.011-0.116-0.015c-0.009,0.052-0.009,0.112-0.021,0.164c-0.063,1.04-0.425,1.979-1.094,2.706
			c-1.064,2.773-4.91,3.253-6.971,1.397c-0.151-0.13-0.244-0.32-0.373-0.477c-0.203-0.246-0.419-0.473-0.557-0.783
			c-0.134-0.287-0.164-0.645-0.227-0.984c-0.047-0.25-0.159-0.447-0.166-0.723c-0.009-0.358-0.028-0.85-0.028-0.85
			c0-0.138,0.048-0.231,0.054-0.365c0.009-0.376,0.021-0.757,0.03-1.137c0.045-1.7,1.204-3.466,2.842-4.044
			c0.412-0.279,0.87-0.541,1.438-0.742c1.824-0.652,4.43,0.723,4.745,2.695c0.058,0.357,0.104,0.719,0.154,1.081
			c0.187,0.287,0.323,0.611,0.315,1.01c-0.003,0.265-0.063,0.5-0.101,0.745C39.123,135.435,39.173,135.521,39.182,135.64z"/>
	</g>
</g>
</svg>
